<svg
	xmlns="http://www.w3.org/2000/svg"
	viewBox="0 0 222 33"
>
<path
d="M28-18A10,10,0,0,1,18-8H4l4-8h4.54A4,4,0,0,0,16-14a4,4,0,0,0,3.32-1.77A4,4,0,0,0,20-18a4,4,0,0,0-1.36-3l-.1-.09A4,4,0,0,0,16-22a4,4,0,0,0-2.64,1,3.86,3.86,0,0,0-.76.9,9.9,9.9,0,0,1-3.94-1.45A10,10,0,0,1,4-30,10,10,0,0,1,14-40H28c-1.33,2.67-2.67,5.33-4,8H19.46A4,4,0,0,0,16-34a4,4,0,0,0-3.32,1.77A4,4,0,0,0,12-30a4,4,0,0,0,1.36,3l.1.09A4,4,0,0,0,16-26a4,4,0,0,0,2.64-1,3.86,3.86,0,0,0,.76-.9,9.9,9.9,0,0,1,3.94,1.45A10,10,0,0,1,28-18Z"
transform="translate(-4 40)"
fill="hsl(var(--foreground)"
/>
<path
d="M42.55-7.51a12.56,12.56,0,0,1-6.22-1.55,11.9,11.9,0,0,1-4.46-4.28,11.57,11.57,0,0,1-1.67-6.17,11.58,11.58,0,0,1,1.67-6.2A12,12,0,0,1,36.33-30a12.57,12.57,0,0,1,6.22-1.56A12.46,12.46,0,0,1,48.74-30a12.15,12.15,0,0,1,4.44,4.25,11.58,11.58,0,0,1,1.67,6.2,11.57,11.57,0,0,1-1.67,6.17,12.07,12.07,0,0,1-4.44,4.28A12.45,12.45,0,0,1,42.55-7.51Zm0-5.68a5.61,5.61,0,0,0,3-.8,5.63,5.63,0,0,0,2-2.24,7.08,7.08,0,0,0,.74-3.28,7,7,0,0,0-.74-3.27,5.81,5.81,0,0,0-2-2.23,5.45,5.45,0,0,0-3-.82,5.56,5.56,0,0,0-3,.82,5.7,5.7,0,0,0-2,2.23,7,7,0,0,0-.74,3.27,7.08,7.08,0,0,0,.74,3.28,5.53,5.53,0,0,0,2,2.24A5.72,5.72,0,0,0,42.55-13.19Z"
transform="translate(-4 40)"
fill="hsl(var(--foreground)"
/>
<path
d="M69.42-7.51a12.3,12.3,0,0,1-6.21-1.57,11.94,11.94,0,0,1-4.38-4.32,11.87,11.87,0,0,1-1.62-6.15,11.8,11.8,0,0,1,1.6-6.13A11.54,11.54,0,0,1,63.19-30a12.5,12.5,0,0,1,6.23-1.56,12.65,12.65,0,0,1,4.77.89,10.88,10.88,0,0,1,3.74,2.46,9.13,9.13,0,0,1,2.24,3.73l-5.48,2.36a5.41,5.41,0,0,0-2-2.74,5.49,5.49,0,0,0-3.27-1,5.42,5.42,0,0,0-2.92.8,5.55,5.55,0,0,0-2,2.23,7.11,7.11,0,0,0-.73,3.29,7.07,7.07,0,0,0,.73,3.28,5.58,5.58,0,0,0,2,2.24,5.42,5.42,0,0,0,2.92.8,5.47,5.47,0,0,0,3.29-1,5.48,5.48,0,0,0,2-2.74l5.48,2.4A8.89,8.89,0,0,1,78-10.92a11,11,0,0,1-3.75,2.51A12.52,12.52,0,0,1,69.42-7.51Z"
transform="translate(-4 40)"
fill="hsl(var(--foreground)"
/>
<path
d="M82.82-8V-39.9h6.32v20.43l-2.36-.76L96.94-31h7.79l-8.34,9.26L104.69-8H97.53l-7-11.67,3.67-.93-7,7.67,1.94-3.67V-8Z"
transform="translate(-4 40)"
fill="hsl(var(--foreground)"
/>
<path
d="M115.64-7.51a12.13,12.13,0,0,1-6.36-1.62,11.13,11.13,0,0,1-4.17-4.36,12.5,12.5,0,0,1-1.48-6.06,12.27,12.27,0,0,1,1.54-6.16A11.59,11.59,0,0,1,109.32-30a11.29,11.29,0,0,1,5.9-1.56,12.78,12.78,0,0,1,4.84.86,9.89,9.89,0,0,1,3.56,2.43,10.76,10.76,0,0,1,2.22,3.6,12.77,12.77,0,0,1,.75,4.44c0,.45,0,.9-.06,1.33a4.59,4.59,0,0,1-.23,1.12H109.07v-4.64h13.65l-3,2.19a6,6,0,0,0,0-3.22,4.29,4.29,0,0,0-1.63-2.23,4.76,4.76,0,0,0-2.84-.82,4.83,4.83,0,0,0-2.82.8,4.74,4.74,0,0,0-1.77,2.36,9.19,9.19,0,0,0-.47,3.79,7.05,7.05,0,0,0,.47,3.41,5,5,0,0,0,1.94,2.3,5.86,5.86,0,0,0,3.15.82,5.8,5.8,0,0,0,2.89-.68,4.78,4.78,0,0,0,1.88-1.85l5.05,2.4a7.57,7.57,0,0,1-2.13,2.95,10.32,10.32,0,0,1-3.43,2A13.12,13.12,0,0,1,115.64-7.51Z"
transform="translate(-4 40)"
fill="hsl(var(--foreground)"
/>
<path
d="M140.2-7.76A8.83,8.83,0,0,1,133.74-10a8.42,8.42,0,0,1-2.3-6.3v-9.23h-3.88V-31h.22a3.83,3.83,0,0,0,2.71-.89,3.46,3.46,0,0,0,.95-2.65v-1.69h6.32V-31h5.39v5.47h-5.39v8.81a4.09,4.09,0,0,0,.42,2,2.62,2.62,0,0,0,1.31,1.16,5.62,5.62,0,0,0,2.19.38,5.89,5.89,0,0,0,.67,0l.8-.08V-8c-.42.06-.9.11-1.43.17S140.68-7.76,140.2-7.76Z"
transform="translate(-4 40)"
fill="hsl(var(--foreground)"
/>
<path
d="M149.72-7.38A3.71,3.71,0,0,1,147-8.52a3.71,3.71,0,0,1-1.14-2.73,3.69,3.69,0,0,1,1.14-2.7,3.71,3.71,0,0,1,2.73-1.14,3.69,3.69,0,0,1,2.7,1.14,3.69,3.69,0,0,1,1.14,2.7,3.71,3.71,0,0,1-1.14,2.73A3.69,3.69,0,0,1,149.72-7.38Z"
transform="translate(-4 40)"
fill="#e83452"
/>
</svg>
